<svg width="14" height="14" viewBox="0 0 14 14" fill="none" xmlns="http://www.w3.org/2000/svg">
<path fill-rule="evenodd" clip-rule="evenodd" d="M10.998 0.185059C10.998 0.185059 11.036 1.53998 11.5659 2.28891C11.6015 2.33927 11.6394 2.38689 11.6796 2.43117C11.736 2.49329 11.7984 2.55029 11.8652 2.60259C12.5547 3.14205 13.7195 3.18161 13.7195 3.18161C13.7195 3.18161 12.5547 3.22116 11.8652 3.76062C11.7984 3.81292 11.736 3.86992 11.6796 3.93204C11.6394 3.97632 11.6015 4.02394 11.5659 4.0743C11.036 4.82323 10.998 6.17815 10.998 6.17815C10.998 6.17815 10.9601 4.82323 10.4302 4.0743C10.3946 4.02394 10.3567 3.97632 10.3165 3.93204C10.2601 3.86992 10.1977 3.81292 10.1309 3.76062C9.44139 3.22116 8.27659 3.18161 8.27659 3.18161C8.27659 3.18161 9.44139 3.14205 10.1309 2.60259C10.1977 2.55029 10.2601 2.49329 10.3165 2.43117C10.3567 2.38689 10.3946 2.33927 10.4302 2.28891C10.9601 1.53998 10.998 0.185059 10.998 0.185059ZM10.9825 3.18161L10.998 3.16583L11.0136 3.18161L10.998 3.19738L10.9825 3.18161ZM6.70749 0.833785C6.70749 0.833785 6.75278 2.34575 7.23082 3.80476C7.46616 4.52305 7.8064 5.2285 8.29776 5.7344C8.79849 6.24994 9.50053 6.6039 10.2119 6.84665C11.6165 7.32595 13.0576 7.37171 13.0576 7.37171C13.0576 7.37171 11.6165 7.41746 10.2119 7.89676C9.50053 8.13951 8.79849 8.49347 8.29776 9.00902C7.8064 9.51491 7.46616 10.2204 7.23082 10.9387C6.75278 12.3977 6.70749 13.9096 6.70749 13.9096C6.70749 13.9096 6.6622 12.3977 6.18416 10.9387C5.94881 10.2204 5.60858 9.51491 5.11722 9.00902C4.61649 8.49347 3.91445 8.13951 3.20307 7.89676C1.79847 7.41746 0.357422 7.37171 0.357422 7.37171C0.357422 7.37171 1.79847 7.32595 3.20307 6.84665C3.91445 6.6039 4.61649 6.24994 5.11722 5.7344C5.60858 5.2285 5.94881 4.52305 6.18416 3.80476C6.6622 2.34575 6.70749 0.833785 6.70749 0.833785ZM5.83456 6.43112C6.19248 6.06261 6.47838 5.62589 6.70749 5.16753C6.9366 5.62589 7.2225 6.06261 7.58042 6.43112C7.95892 6.82082 8.41185 7.1283 8.88585 7.37171C8.41185 7.61512 7.95892 7.92259 7.58042 8.31229C7.2225 8.6808 6.9366 9.11752 6.70749 9.57588C6.47838 9.11752 6.19248 8.6808 5.83456 8.31229C5.45606 7.92259 5.00313 7.61512 4.52913 7.37171C5.00313 7.1283 5.45606 6.82082 5.83456 6.43112Z" fill="#373A44"/>
</svg>
